<svg width="30" height="30" viewBox="0 0 30 30" fill="none" xmlns="http://www.w3.org/2000/svg">
<path d="M29.7534 15.2466C29.7534 19.1594 28.199 22.912 25.4322 25.6788C22.6654 28.4456 18.9128 30 15 30C11.0871 30 7.33453 28.4456 4.56773 25.6788C1.80093 22.912 0.246552 19.1594 0.246552 15.2466C0.246552 11.3337 1.80093 7.58115 4.56773 4.81434C7.33453 2.04754 11.0871 0.493164 15 0.493164C18.9128 0.493164 22.6654 2.04754 25.4322 4.81434C28.199 7.58115 29.7534 11.3337 29.7534 15.2466ZM15.0179 1.74948C13.8869 1.74778 12.8217 1.87315 11.8221 2.12561C11.8026 2.13066 11.7849 2.14109 11.771 2.15571C11.7572 2.17033 11.7477 2.18855 11.7437 2.20829C11.7397 2.22803 11.7413 2.24849 11.7484 2.26735C11.7555 2.28621 11.7677 2.30271 11.7837 2.31495C13.301 3.4331 14.8311 4.61778 15.0281 4.61778C15.1996 4.61778 16.7297 3.43566 18.2495 2.31751C18.2655 2.30527 18.2777 2.28877 18.2848 2.26991C18.2919 2.25105 18.2935 2.23059 18.2895 2.21085C18.2855 2.19111 18.276 2.17289 18.2622 2.15827C18.2483 2.14365 18.2306 2.13322 18.2111 2.12817C17.2115 1.87571 16.1471 1.74948 15.0179 1.74948ZM8.01474 12.3041L9.94144 12.9412C9.98116 12.9539 10.0234 12.9571 10.0647 12.9504C10.106 12.9437 10.1453 12.9274 10.1794 12.9028L14.2528 9.94754C14.2917 9.91896 14.3232 9.88138 14.345 9.83783C14.3668 9.79427 14.3782 9.74596 14.3782 9.69678V5.92527C14.3782 5.88392 14.3685 5.84315 14.3498 5.80626C14.3312 5.76937 14.3041 5.73739 14.2707 5.7129L10.5197 2.98021C10.3073 2.73458 10.1052 2.66549 9.79048 2.80111C7.78958 3.67447 6.09146 4.92226 4.69612 6.54447C4.65867 6.5882 4.63311 6.64083 4.62191 6.69729C4.6107 6.75376 4.61423 6.81216 4.63215 6.86687L6.13922 11.539C6.15523 11.5868 6.1818 11.6301 6.21687 11.6656C6.25193 11.7012 6.29454 11.7279 6.34136 11.7437L8.01474 12.3041ZM17.7941 11.4111C19.0785 12.3476 19.7284 12.8235 19.7438 12.8389C19.7885 12.8838 19.8448 12.9155 19.9062 12.9304C19.9676 12.9453 20.0319 12.9429 20.0918 12.9233L23.6791 11.754C23.721 11.7406 23.7592 11.7173 23.7903 11.6861C23.8215 11.655 23.8448 11.6168 23.8582 11.5749L25.3857 6.86431C25.399 6.82191 25.4017 6.77693 25.3937 6.73325C25.3856 6.68956 25.3671 6.64848 25.3397 6.61356C24.6795 5.78284 23.8803 5.02546 22.9422 4.34144C22.004 3.65912 21.0385 3.13118 20.0457 2.75761C20.004 2.74214 19.9591 2.73708 19.9149 2.74288C19.8708 2.74868 19.8287 2.76515 19.7924 2.79087L15.7778 5.68987C15.7416 5.71525 15.712 5.74894 15.6916 5.78812C15.6711 5.8273 15.6603 5.87083 15.6601 5.91504L15.6499 9.68655C15.6498 9.74939 15.6671 9.81109 15.7001 9.86483C15.7331 9.91857 15.7803 9.96225 15.8367 9.99103C15.8554 10.0013 16.5079 10.4746 17.7941 11.4111ZM2.17325 11.0759C1.82356 12.1523 1.61375 13.2048 1.54381 14.2333C1.54256 14.2535 1.54704 14.2737 1.55671 14.2914C1.56639 14.3092 1.58088 14.3238 1.59852 14.3337C1.61616 14.3436 1.63623 14.3483 1.65642 14.3473C1.67661 14.3463 1.69612 14.3396 1.71268 14.328C3.2479 13.2303 4.84708 12.1403 4.90849 11.9536C4.96222 11.7898 4.30976 9.96801 3.71614 8.17692C3.70955 8.15787 3.69773 8.14106 3.68203 8.12841C3.66634 8.11576 3.64741 8.10778 3.62739 8.10538C3.60738 8.10298 3.58709 8.10625 3.56885 8.11483C3.55061 8.12341 3.53515 8.13694 3.52424 8.15389C2.97497 9.02726 2.52464 10.0013 2.17325 11.0759ZM27.8369 11.0657C27.4838 9.99103 27.0318 9.01788 26.4808 8.14622C26.4699 8.12927 26.4545 8.11573 26.4362 8.10715C26.418 8.09858 26.3977 8.0953 26.3777 8.0977C26.3577 8.1001 26.3387 8.10809 26.323 8.12074C26.3073 8.13339 26.2955 8.1502 26.2889 8.16924C25.6979 9.96033 25.0505 11.7872 25.1043 11.9484C25.1657 12.1352 26.77 13.2227 28.3052 14.3178C28.3217 14.3294 28.3413 14.3361 28.3614 14.3371C28.3816 14.3381 28.4017 14.3334 28.4193 14.3235C28.437 14.3136 28.4515 14.2989 28.4612 14.2812C28.4708 14.2634 28.4753 14.2433 28.4741 14.2231C28.4024 13.1928 28.19 12.1403 27.8369 11.0657ZM12.9658 12.4525C11.6592 13.3992 10.9982 13.8973 10.9828 13.9468C10.9658 13.9962 11.2063 14.7886 11.7044 16.3238C12.2008 17.8573 12.4703 18.6394 12.5129 18.6701C12.5556 18.7008 13.3837 18.717 14.9974 18.7187C16.6094 18.7187 17.4367 18.7034 17.4794 18.6727C17.522 18.642 17.7932 17.8599 18.293 16.3264C18.7911 14.7928 19.0325 14.0014 19.0171 13.9519C19.0018 13.9024 18.3416 13.4035 17.0367 12.4551C15.7318 11.5049 15.0537 11.0299 15.0025 11.0299C14.9497 11.0299 14.2707 11.5041 12.9658 12.4525ZM9.87236 21.1981L11.2413 19.3226C11.2619 19.294 11.2754 19.2609 11.2807 19.2262C11.2861 19.1915 11.2831 19.1561 11.272 19.123L9.72139 14.3203C9.70623 14.2744 9.68026 14.2326 9.64558 14.1983C9.6109 14.1641 9.56849 14.1384 9.52181 14.1233L7.90472 13.6244L5.98314 13.0154C5.92461 12.9964 5.86231 12.9915 5.80137 13.0013C5.74044 13.0111 5.6826 13.0352 5.6326 13.0717L1.67174 15.9451C1.63479 15.9725 1.60534 16.0087 1.58611 16.0503C1.56687 16.0919 1.55849 16.1375 1.56172 16.1831C1.69989 18.4194 2.37624 20.4911 3.59076 22.3981C3.6142 22.4342 3.64635 22.4638 3.68433 22.4844C3.7223 22.5049 3.7649 22.5157 3.80825 22.5158H8.79259C8.8331 22.5158 8.87298 22.5062 8.90898 22.488C8.94499 22.4698 8.97611 22.4434 8.99984 22.4109L9.87236 21.1981ZM19.5212 16.6923C19.0265 18.2036 18.774 18.9686 18.7638 18.9874C18.7344 19.0438 18.7212 19.1073 18.7258 19.1705C18.7303 19.2338 18.7523 19.2944 18.7894 19.3456L21.0078 22.3956C21.0334 22.4313 21.0673 22.4604 21.1064 22.4804C21.1456 22.5004 21.189 22.5108 21.233 22.5107L26.1866 22.5133C26.2313 22.5128 26.2752 22.5013 26.3144 22.4799C26.3537 22.4585 26.3871 22.4278 26.4117 22.3905C26.9968 21.5052 27.4702 20.5115 27.8318 19.4096C28.1917 18.3076 28.3964 17.2262 28.4459 16.1652C28.4477 16.1207 28.4385 16.0765 28.4194 16.0364C28.4002 15.9963 28.3715 15.9614 28.3359 15.9349L24.3392 13.0103C24.304 12.9843 24.2632 12.9671 24.22 12.9599C24.1769 12.9528 24.1327 12.9561 24.091 12.9694L20.4986 14.1208C20.4384 14.1401 20.3846 14.1759 20.3435 14.2243C20.3024 14.2726 20.2755 14.3316 20.2658 14.3945C20.2624 14.415 20.0142 15.1809 19.5212 16.6923ZM10.5632 22.4442L10.0489 23.2246C10.0281 23.2566 10.0148 23.2927 10.0099 23.3304C10.005 23.368 10.0087 23.4062 10.0208 23.4421L11.5406 28.1501C11.5532 28.1893 11.5755 28.2248 11.6054 28.2534C11.6353 28.282 11.672 28.3028 11.7121 28.3138C13.1535 28.6976 14.6247 28.8264 16.1258 28.7002L18.2956 28.3036C18.3343 28.2966 18.3705 28.2791 18.4003 28.253C18.43 28.2269 18.4522 28.1931 18.4644 28.1552L20.0048 23.4088C20.0191 23.3654 20.0226 23.319 20.015 23.2736C20.0075 23.2281 19.989 23.185 19.9613 23.1478L17.748 20.0979C17.7236 20.0639 17.6911 20.0362 17.6533 20.017C17.6155 19.9979 17.5734 19.9879 17.5305 19.9878H12.5027C12.4598 19.9879 12.4176 19.9979 12.3794 20.017C12.3412 20.0361 12.3081 20.0638 12.2826 20.0979L10.5632 22.4442ZM22.9498 26.1492C23.8693 25.4788 24.6608 24.7453 25.3243 23.9487C25.3376 23.9329 25.346 23.9136 25.3486 23.8931C25.3512 23.8726 25.3479 23.8519 25.339 23.8332C25.33 23.8146 25.316 23.799 25.2984 23.7881C25.2808 23.7773 25.2605 23.7717 25.2399 23.7722C23.3464 23.7619 21.3993 23.7082 21.2611 23.8105C21.1025 23.9257 20.5575 25.7961 19.9869 27.6025C19.9804 27.6221 19.9797 27.6431 19.9848 27.6631C19.9899 27.683 20.0006 27.7011 20.0157 27.7151C20.0308 27.7291 20.0497 27.7385 20.0699 27.7421C20.0902 27.7458 20.1111 27.7435 20.1302 27.7356C21.0922 27.3467 22.0321 26.8179 22.9498 26.1492ZM7.08594 26.1441C7.99513 26.8076 8.92564 27.3322 9.87747 27.7177C9.8965 27.7256 9.9174 27.7279 9.93768 27.7242C9.95797 27.7206 9.97678 27.7112 9.99188 27.6972C10.007 27.6832 10.0177 27.6651 10.0229 27.6451C10.028 27.6252 10.0272 27.6042 10.0208 27.5846C9.45529 25.7961 8.91796 23.9436 8.77979 23.8438C8.62115 23.7287 6.69446 23.7798 4.81894 23.7875C4.79852 23.7876 4.77854 23.7935 4.76135 23.8045C4.74417 23.8155 4.73047 23.8312 4.72188 23.8498C4.71329 23.8683 4.71016 23.8889 4.71284 23.9091C4.71553 23.9294 4.72393 23.9484 4.73706 23.9641C5.39379 24.7538 6.17675 25.4805 7.08594 26.1441Z" fill="#C6D42D"/>
<path d="M15.0178 1.74953C16.1471 1.74953 17.2115 1.87576 18.2111 2.12822C18.2306 2.13327 18.2483 2.1437 18.2621 2.15832C18.276 2.17294 18.2854 2.19115 18.2894 2.21089C18.2934 2.23063 18.2918 2.2511 18.2847 2.26996C18.2777 2.28882 18.2654 2.30531 18.2495 2.31756C16.7296 3.43571 15.1995 4.61782 15.0281 4.61782C14.831 4.61782 13.3009 3.43315 11.7836 2.315C11.7676 2.30275 11.7554 2.28626 11.7484 2.2674C11.7413 2.24854 11.7397 2.22807 11.7437 2.20833C11.7477 2.1886 11.7571 2.17038 11.771 2.15576C11.7848 2.14114 11.8025 2.13071 11.822 2.12566C12.8216 1.8732 13.8869 1.74782 15.0178 1.74953Z" fill="url(#paint0_linear_143_194)"/>
<path d="M10.5196 2.98022C9.18228 5.39562 8.39762 7.96881 8.16563 10.6998C8.11957 11.2303 8.06925 11.7651 8.01467 12.3041L6.34128 11.7437C6.29446 11.7279 6.25185 11.7012 6.21679 11.6656C6.18172 11.6301 6.15515 11.5868 6.13914 11.539L4.63207 6.86687C4.61415 6.81216 4.61062 6.75376 4.62183 6.69729C4.63303 6.64083 4.65859 6.5882 4.69604 6.54448C6.09138 4.92226 7.7895 3.67447 9.7904 2.80111C10.1051 2.6655 10.3073 2.73458 10.5196 2.98022Z" fill="#EAEAEA"/>
<path d="M22.9424 4.34161C23.8805 5.02564 24.6797 5.78301 25.3399 6.61373C25.3673 6.64866 25.3858 6.68973 25.3939 6.73342C25.4019 6.7771 25.3992 6.82209 25.3859 6.86448L23.8584 11.575C23.845 11.617 23.8217 11.6552 23.7905 11.6863C23.7594 11.7175 23.7212 11.7407 23.6793 11.7541L20.092 12.9235C20.0321 12.943 19.9678 12.9455 19.9064 12.9306C19.845 12.9157 19.7887 12.884 19.744 12.839C19.7286 12.8237 19.0787 12.3478 17.7943 11.4113C16.5081 10.4748 15.8556 10.0014 15.8369 9.99121C15.7805 9.96243 15.7333 9.91875 15.7003 9.86501C15.6673 9.81126 15.65 9.74956 15.6501 9.68672L15.6603 5.91521C15.6605 5.871 15.6713 5.82748 15.6918 5.7883C15.7122 5.74912 15.7418 5.71542 15.778 5.69004L19.7926 2.79104C19.8289 2.76532 19.871 2.74885 19.9151 2.74305C19.9593 2.73726 20.0042 2.74231 20.0459 2.75778C21.0387 3.13135 22.0042 3.65929 22.9424 4.34161Z" fill="white"/>
<path d="M10.5198 2.98022L14.2708 5.71291C14.3041 5.7374 14.3312 5.76938 14.3499 5.80627C14.3685 5.84317 14.3783 5.88393 14.3783 5.92528V9.69679C14.3782 9.74597 14.3668 9.79428 14.3451 9.83784C14.3233 9.88139 14.2917 9.91897 14.2529 9.94755L10.1795 12.9028C10.1454 12.9274 10.1061 12.9437 10.0648 12.9504C10.0234 12.9571 9.98122 12.9539 9.9415 12.9412L8.0148 12.3041C8.06939 11.7651 8.11971 11.2303 8.16576 10.6998C8.39775 7.96882 9.18242 5.39563 10.5198 2.98022Z" fill="white"/>
<path d="M4.90859 11.9537C4.84718 12.1405 3.248 13.2305 1.71278 14.3281C1.69621 14.3397 1.67671 14.3464 1.65652 14.3474C1.63632 14.3484 1.61625 14.3437 1.59862 14.3338C1.58098 14.3239 1.56649 14.3093 1.55681 14.2915C1.54713 14.2738 1.54266 14.2537 1.54391 14.2335C1.61384 13.2049 1.82366 12.1524 2.17334 11.076C2.52474 10.0014 2.97507 9.02738 3.52433 8.15402C3.53525 8.13707 3.55071 8.12353 3.56895 8.11495C3.58719 8.10638 3.60747 8.1031 3.62749 8.1055C3.6475 8.1079 3.66644 8.11589 3.68213 8.12854C3.69782 8.14119 3.70964 8.158 3.71624 8.17704C4.30985 9.96813 4.96232 11.7899 4.90859 11.9537Z" fill="#A6B224"/>
<path d="M27.837 11.0659C28.1901 12.1406 28.4025 13.193 28.4741 14.2233C28.4753 14.2435 28.4709 14.2636 28.4612 14.2814C28.4515 14.2992 28.437 14.3138 28.4194 14.3237C28.4017 14.3336 28.3817 14.3383 28.3615 14.3373C28.3413 14.3363 28.3218 14.3296 28.3052 14.318C26.77 13.2229 25.1657 12.1355 25.1043 11.9487C25.0506 11.7875 25.6979 9.96056 26.289 8.16948C26.2956 8.15043 26.3074 8.13362 26.3231 8.12097C26.3388 8.10832 26.3577 8.10034 26.3777 8.09793C26.3977 8.09553 26.418 8.09881 26.4363 8.10739C26.4545 8.11596 26.47 8.1295 26.4809 8.14645C27.0318 9.01811 27.4839 9.99127 27.837 11.0659Z" fill="url(#paint1_linear_143_194)"/>
<path d="M14.9975 12.4525C15.0487 12.4525 15.7318 11.505 17.0368 12.4551C18.3417 13.4035 19.0018 13.9025 19.0172 13.9519C19.0325 14.0014 18.7912 14.7929 18.2931 16.3264C17.7933 17.8599 17.5221 18.642 17.4794 18.6727C17.4368 18.7034 16.6095 18.7188 14.9975 18.7188C13.3838 18.7171 12.5556 18.7009 12.513 18.6702C12.4703 18.6394 12.2008 17.8573 11.7044 16.3238C11.2063 14.7886 10.9658 13.9963 10.9829 13.9468C10.9982 13.8973 11.6592 13.3992 12.9659 12.4525C14.2708 11.5041 14.9446 12.4525 14.9975 12.4525Z" fill="url(#paint2_linear_143_194)"/>
<path d="M7.90471 13.6246C8.05482 14.5934 8.1947 15.5598 8.32434 16.5236C8.4898 17.7722 9.0058 19.3304 9.87235 21.1983L8.99983 22.4111C8.9761 22.4436 8.94498 22.47 8.90897 22.4882C8.87297 22.5064 8.83309 22.5159 8.79258 22.516H3.80824C3.76489 22.5159 3.72229 22.5051 3.68432 22.4846C3.64634 22.464 3.61419 22.4344 3.59076 22.3983C2.37623 20.4912 1.69988 18.4195 1.56171 16.1833C1.55848 16.1377 1.56687 16.0921 1.5861 16.0505C1.60533 16.0089 1.63478 15.9727 1.67174 15.9453L5.63259 13.0719C5.68259 13.0354 5.74043 13.0113 5.80137 13.0015C5.8623 12.9917 5.9246 12.9966 5.98313 13.0156L7.90471 13.6246Z" fill="#EAEAEA"/>
<path d="M19.5211 16.6923C20.014 15.181 20.2622 14.4151 20.2656 14.3946C20.2753 14.3316 20.3023 14.2727 20.3434 14.2243C20.3845 14.1759 20.4382 14.1401 20.4985 14.1208L24.0909 12.9694C24.1325 12.9561 24.1768 12.9529 24.2199 12.96C24.2631 12.9671 24.3039 12.9844 24.3391 13.0103L28.3358 15.9349C28.3714 15.9615 28.4001 15.9963 28.4192 16.0365C28.4384 16.0766 28.4475 16.1208 28.4458 16.1652C28.3963 17.2262 28.1916 18.3077 27.8317 19.4096C27.4701 20.5116 26.9967 21.5052 26.4116 22.3905C26.387 22.4278 26.3536 22.4585 26.3143 22.4799C26.2751 22.5013 26.2312 22.5128 26.1865 22.5133L21.2328 22.5108C21.1888 22.5109 21.1455 22.5005 21.1063 22.4805C21.0671 22.4604 21.0333 22.4313 21.0077 22.3956L18.7893 19.3457C18.7522 19.2945 18.7301 19.2338 18.7256 19.1706C18.7211 19.1073 18.7343 19.0439 18.7637 18.9874C18.7739 18.9687 19.0264 18.2036 19.5211 16.6923Z" fill="white"/>
<path d="M9.87239 21.1982C9.00585 19.3304 8.48984 17.7722 8.32438 16.5235C8.19474 15.5597 8.05486 14.5934 7.90475 13.6245L9.52185 14.1235C9.56853 14.1385 9.61093 14.1642 9.64561 14.1985C9.68029 14.2327 9.70627 14.2745 9.72143 14.3205L11.272 19.1231C11.2831 19.1563 11.2861 19.1917 11.2808 19.2264C11.2754 19.2611 11.2619 19.2941 11.2413 19.3227L9.87239 21.1982Z" fill="white"/>
<path d="M16.1257 28.7004C13.7512 27.0731 11.897 24.9877 10.5631 22.4444L12.2826 20.0981C12.308 20.064 12.3412 20.0363 12.3793 20.0172C12.4175 19.9981 12.4597 19.9881 12.5026 19.988H17.5304C17.5733 19.9881 17.6154 19.9981 17.6532 20.0172C17.691 20.0363 17.7235 20.0641 17.7479 20.0981L19.9612 23.148C19.9889 23.1852 20.0074 23.2283 20.015 23.2738C20.0225 23.3192 20.019 23.3656 20.0047 23.409L18.4644 28.1554C18.4521 28.1932 18.4299 28.227 18.4002 28.2532C18.3704 28.2793 18.3342 28.2968 18.2955 28.3038L16.1257 28.7004Z" fill="white"/>
<path d="M10.5632 22.4443C11.8971 24.9877 13.7513 27.073 16.1258 28.7003C14.6247 28.8266 13.1534 28.6978 11.712 28.314C11.672 28.3029 11.6353 28.2821 11.6054 28.2536C11.5755 28.225 11.5532 28.1895 11.5406 28.1502L10.0207 23.4422C10.0087 23.4064 10.005 23.3682 10.0099 23.3305C10.0147 23.2929 10.0281 23.2567 10.0489 23.2247L10.5632 22.4443Z" fill="#EAEAEA"/>
<path d="M22.95 26.1493C22.0322 26.8179 21.0923 27.3467 20.1303 27.7357C20.1112 27.7436 20.0903 27.7459 20.0701 27.7422C20.0498 27.7386 20.031 27.7292 20.0159 27.7152C20.0008 27.7012 19.99 27.6831 19.9849 27.6631C19.9798 27.6432 19.9805 27.6222 19.987 27.6026C20.5576 25.7962 21.1026 23.9258 21.2612 23.8106C21.3994 23.7083 23.3466 23.762 25.24 23.7722C25.2606 23.7718 25.2809 23.7774 25.2985 23.7882C25.3161 23.799 25.3302 23.8147 25.3391 23.8333C25.348 23.8519 25.3513 23.8727 25.3487 23.8932C25.3461 23.9137 25.3377 23.933 25.3244 23.9488C24.6609 24.7454 23.8694 25.4789 22.95 26.1493Z" fill="url(#paint3_linear_143_194)"/>
<path d="M7.08576 26.144C6.17657 25.4805 5.39361 24.7538 4.73688 23.964C4.72375 23.9484 4.71535 23.9293 4.71267 23.9091C4.70998 23.8888 4.71311 23.8682 4.72171 23.8497C4.7303 23.8312 4.74399 23.8155 4.76118 23.8045C4.77836 23.7934 4.79834 23.7875 4.81876 23.7875C6.69428 23.7798 8.62098 23.7286 8.77962 23.8438C8.91779 23.9435 9.45511 25.796 10.0206 27.5846C10.0271 27.6041 10.0278 27.6251 10.0227 27.6451C10.0176 27.6651 10.0068 27.6831 9.99171 27.6971C9.97661 27.7112 9.95779 27.7206 9.93751 27.7242C9.91722 27.7278 9.89632 27.7255 9.8773 27.7176C8.92546 27.3321 7.99495 26.8076 7.08576 26.144Z" fill="#A6B224"/>
<defs>
<linearGradient id="paint0_linear_143_194" x1="15.0165" y1="1.74951" x2="15.0165" y2="4.61782" gradientUnits="userSpaceOnUse">
<stop stop-color="#BCD200"/>
<stop offset="1" stop-color="#697505"/>
</linearGradient>
<linearGradient id="paint1_linear_143_194" x1="26.7877" y1="8.09717" x2="26.7877" y2="14.3374" gradientUnits="userSpaceOnUse">
<stop stop-color="#BCD200"/>
<stop offset="1" stop-color="#697505"/>
</linearGradient>
<linearGradient id="paint2_linear_143_194" x1="15" y1="12.031" x2="15" y2="18.7188" gradientUnits="userSpaceOnUse">
<stop stop-color="#BCD200"/>
<stop offset="1" stop-color="#697505"/>
</linearGradient>
<linearGradient id="paint3_linear_143_194" x1="22.6656" y1="23.749" x2="22.6656" y2="27.7439" gradientUnits="userSpaceOnUse">
<stop stop-color="#BCD200"/>
<stop offset="1" stop-color="#697505"/>
</linearGradient>
</defs>
</svg>
