<svg width="34" height="34" viewBox="0 0 34 34" fill="none" xmlns="http://www.w3.org/2000/svg">
<path d="M17.3261 6.40911V17.977C17.3261 18.2418 17.2209 18.4957 17.0337 18.6829C16.8465 18.8702 16.5925 18.9754 16.3277 18.9754C16.0629 18.9754 15.809 18.8702 15.6217 18.6829C15.4345 18.4957 15.3293 18.2418 15.3293 17.977V6.40911L13.0405 8.69922C12.8531 8.88656 12.599 8.99181 12.3341 8.99181C12.0691 8.99181 11.815 8.88656 11.6277 8.69922C11.4404 8.51188 11.3351 8.25778 11.3351 7.99284C11.3351 7.7279 11.4404 7.47381 11.6277 7.28647L15.6213 3.29282C15.7141 3.19999 15.8242 3.12635 15.9454 3.07611C16.0666 3.02586 16.1965 3 16.3277 3C16.4589 3 16.5888 3.02586 16.7101 3.07611C16.8313 3.12635 16.9414 3.19999 17.0341 3.29282L21.0277 7.28647C21.2151 7.47381 21.3203 7.7279 21.3203 7.99284C21.3203 8.25778 21.2151 8.51188 21.0277 8.69922C20.8404 8.88656 20.5863 8.99181 20.3214 8.99181C20.0564 8.99181 19.8023 8.88656 19.615 8.69922L17.3261 6.40911ZM25.3134 17.4303V13.9833C25.3134 13.4537 25.103 12.9458 24.7286 12.5713C24.3541 12.1969 23.8462 11.9865 23.3166 11.9865H21.3198C21.055 11.9865 20.801 12.0917 20.6138 12.2789C20.4266 12.4662 20.3214 12.7201 20.3214 12.9849C20.3214 13.2497 20.4266 13.5036 20.6138 13.6909C20.801 13.8781 21.055 13.9833 21.3198 13.9833H23.3166V24.0173C22.7212 23.4091 21.9243 23.0391 21.0754 22.9768C20.2265 22.9144 19.3841 23.164 18.7062 23.6788C18.0284 24.1935 17.5617 24.9379 17.3937 25.7723C17.2258 26.6068 17.3682 27.4738 17.7941 28.2107L17.8241 28.2581L20.6022 32.5013C20.7471 32.7229 20.9742 32.8779 21.2334 32.9321C21.4926 32.9862 21.7627 32.9352 21.9843 32.7903C22.2059 32.6453 22.3609 32.4182 22.4151 32.159C22.4692 31.8998 22.4182 31.6297 22.2733 31.4081L19.5114 27.191C19.3156 26.8453 19.2652 26.436 19.3712 26.0531C19.4772 25.6702 19.731 25.3451 20.0768 25.1493C20.4225 24.9535 20.8318 24.9031 21.2147 25.0091C21.5976 25.1151 21.9227 25.3689 22.1185 25.7146C22.1272 25.7309 22.1372 25.7471 22.1472 25.7621L23.4801 27.7976C23.5979 27.9773 23.7705 28.1141 23.9724 28.1879C24.1742 28.2616 24.3944 28.2683 24.6003 28.2069C24.8062 28.1455 24.9868 28.0193 25.1153 27.8471C25.2438 27.6749 25.3132 27.4658 25.3134 27.2509V19.9738C26.2545 20.8449 27.0061 21.9005 27.5214 23.0747C28.0367 24.249 28.3047 25.5168 28.3087 26.7992V31.9547C28.3087 32.2195 28.4138 32.4735 28.6011 32.6607C28.7883 32.8479 29.0423 32.9531 29.3071 32.9531C29.5719 32.9531 29.8258 32.8479 30.0131 32.6607C30.2003 32.4735 30.3055 32.2195 30.3055 31.9547V26.7942C30.2998 24.9447 29.842 23.1246 28.9719 21.4925C28.1018 19.8604 26.8459 18.4659 25.3134 17.4303ZM11.3357 11.9865H9.33884C8.80925 11.9865 8.30135 12.1969 7.92687 12.5713C7.5524 12.9458 7.34202 13.4537 7.34202 13.9833V26.9627C7.34202 27.2275 7.44721 27.4814 7.63445 27.6686C7.82168 27.8559 8.07563 27.9611 8.34043 27.9611C8.60522 27.9611 8.85917 27.8559 9.04641 27.6686C9.23365 27.4814 9.33884 27.2275 9.33884 26.9627V13.9833H11.3357C11.6005 13.9833 11.8544 13.8781 12.0416 13.6909C12.2289 13.5036 12.3341 13.2497 12.3341 12.9849C12.3341 12.7201 12.2289 12.4662 12.0416 12.2789C11.8544 12.0917 11.6005 11.9865 11.3357 11.9865Z" fill="black"/>
</svg>
