<svg width="57" height="57" viewBox="0 0 57 57" fill="none" xmlns="http://www.w3.org/2000/svg">
<path d="M16.9906 0.459473H40.6066C49.6031 0.459473 56.9128 7.76917 56.9128 16.7657V40.3816C56.9128 44.7063 55.1948 48.8539 52.1368 51.9119C49.0788 54.9699 44.9312 56.6879 40.6066 56.6879H16.9906C7.99408 56.6879 0.684387 49.3782 0.684387 40.3816V16.7657C0.684387 12.441 2.40236 8.29347 5.46037 5.23546C8.51839 2.17745 12.6659 0.459473 16.9906 0.459473ZM16.4283 6.08231C13.7441 6.08231 11.1697 7.14864 9.27163 9.04672C7.37356 10.9448 6.30723 13.5191 6.30723 16.2034V40.9439C6.30723 46.5387 10.8336 51.065 16.4283 51.065H41.1688C43.8531 51.065 46.4275 49.9987 48.3255 48.1006C50.2236 46.2026 51.29 43.6282 51.29 40.9439V16.2034C51.29 10.6087 46.7636 6.08231 41.1688 6.08231H16.4283ZM43.5585 10.2994C44.4906 10.2994 45.3845 10.6697 46.0435 11.3288C46.7026 11.9878 47.0728 12.8817 47.0728 13.8137C47.0728 14.7458 46.7026 15.6396 46.0435 16.2987C45.3845 16.9577 44.4906 17.328 43.5585 17.328C42.6265 17.328 41.7326 16.9577 41.0736 16.2987C40.4145 15.6396 40.0443 14.7458 40.0443 13.8137C40.0443 12.8817 40.4145 11.9878 41.0736 11.3288C41.7326 10.6697 42.6265 10.2994 43.5585 10.2994ZM28.7986 14.5166C32.5268 14.5166 36.1022 15.9976 38.7385 18.6338C41.3747 21.27 42.8557 24.8455 42.8557 28.5737C42.8557 32.3018 41.3747 35.8773 38.7385 38.5135C36.1022 41.1498 32.5268 42.6308 28.7986 42.6308C25.0704 42.6308 21.4949 41.1498 18.8587 38.5135C16.2225 35.8773 14.7415 32.3018 14.7415 28.5737C14.7415 24.8455 16.2225 21.27 18.8587 18.6338C21.4949 15.9976 25.0704 14.5166 28.7986 14.5166ZM28.7986 20.1394C26.5617 20.1394 24.4164 21.028 22.8347 22.6098C21.2529 24.1915 20.3643 26.3368 20.3643 28.5737C20.3643 30.8106 21.2529 32.9559 22.8347 34.5376C24.4164 36.1193 26.5617 37.0079 28.7986 37.0079C31.0355 37.0079 33.1808 36.1193 34.7625 34.5376C36.3442 32.9559 37.2328 30.8106 37.2328 28.5737C37.2328 26.3368 36.3442 24.1915 34.7625 22.6098C33.1808 21.028 31.0355 20.1394 28.7986 20.1394Z" fill="white"/>
</svg>
