<svg width="20" height="21" viewBox="0 0 20 21" fill="none" xmlns="http://www.w3.org/2000/svg">
<path fill-rule="evenodd" clip-rule="evenodd" d="M3.42857 3.8806C3.42849 3.18729 3.66392 2.51081 4.10277 1.94334C4.54163 1.37587 5.16257 0.945016 5.88099 0.709474C6.59941 0.473932 7.38037 0.445162 8.11746 0.627083C8.85455 0.809005 9.51192 1.19277 10 1.72609C10.6027 1.06285 11.4619 0.633683 12.4017 0.526373C13.3415 0.419064 14.291 0.641719 15.056 1.1488C15.8209 1.65588 16.3435 2.40906 16.5169 3.2543C16.6902 4.09954 16.5012 4.97296 15.9886 5.69592H16.8571C17.6907 5.69592 18.4901 5.99646 19.0795 6.53143C19.6689 7.0664 20 7.79198 20 8.54855V10.6232C20.0003 11.02 19.8572 11.406 19.5928 11.722C19.3284 12.0381 18.9572 12.2668 18.536 12.3731C18.7006 14.2673 18.6046 16.1749 18.2503 18.0504C18.1471 18.5953 17.8517 19.0951 17.4086 19.4745C16.9654 19.8539 16.3985 20.0924 15.7931 20.1541L14.7474 20.2599C11.5919 20.58 8.40694 20.58 5.25143 20.2599L4.20686 20.1541C3.60148 20.0924 3.03456 19.8539 2.59142 19.4745C2.14828 19.0951 1.85289 18.5953 1.74971 18.0504C1.39422 16.1762 1.29824 14.269 1.464 12.3731C1.04278 12.2668 0.671568 12.0381 0.407166 11.722C0.142765 11.406 -0.000253699 11.02 3.37839e-07 10.6232V8.54855C3.37839e-07 7.79198 0.331122 7.0664 0.920522 6.53143C1.50992 5.99646 2.30932 5.69592 3.14286 5.69592H4.01143C3.62975 5.15391 3.42746 4.52387 3.42857 3.8806ZM9.14286 3.8806C9.14286 3.39915 8.93215 2.93742 8.55707 2.59699C8.182 2.25655 7.67329 2.06529 7.14286 2.06529C6.61242 2.06529 6.10372 2.25655 5.72864 2.59699C5.35357 2.93742 5.14286 3.39915 5.14286 3.8806C5.14286 4.36206 5.35357 4.82379 5.72864 5.16422C6.10372 5.50466 6.61242 5.69592 7.14286 5.69592C7.67329 5.69592 8.182 5.50466 8.55707 5.16422C8.93215 4.82379 9.14286 4.36206 9.14286 3.8806ZM12.8571 5.69592C13.1198 5.69592 13.3799 5.64896 13.6225 5.55773C13.8652 5.46651 14.0856 5.33279 14.2714 5.16422C14.4571 4.99566 14.6044 4.79554 14.7049 4.57529C14.8054 4.35505 14.8571 4.11899 14.8571 3.8806C14.8571 3.64221 14.8054 3.40616 14.7049 3.18592C14.6044 2.96567 14.4571 2.76555 14.2714 2.59699C14.0856 2.42842 13.8652 2.2947 13.6225 2.20348C13.3799 2.11225 13.1198 2.06529 12.8571 2.06529C12.3267 2.06529 11.818 2.25655 11.4429 2.59699C11.0679 2.93742 10.8571 3.39915 10.8571 3.8806C10.8571 4.36206 11.0679 4.82379 11.4429 5.16422C11.818 5.50466 12.3267 5.69592 12.8571 5.69592ZM1.71429 8.54855C1.71429 7.8328 2.35429 7.2519 3.14286 7.2519H9.14286V10.8825H2C1.92422 10.8825 1.85155 10.8552 1.79797 10.8066C1.74439 10.7579 1.71429 10.692 1.71429 10.6232V8.54855ZM10.8571 12.4385H16.8217C16.9817 14.2227 16.8949 16.0204 16.5611 17.7869C16.5208 17.9995 16.4055 18.1944 16.2326 18.3424C16.0596 18.4904 15.8385 18.5834 15.6023 18.6074L14.5577 18.7143C13.3272 18.8388 12.0937 18.9128 10.8571 18.9363V12.4385ZM10.8571 10.8825H18C18.0758 10.8825 18.1484 10.8552 18.202 10.8066C18.2556 10.7579 18.2857 10.692 18.2857 10.6232V8.54855C18.2857 7.8328 17.6457 7.2519 16.8571 7.2519H10.8571V10.8825ZM9.14286 12.4385V18.9363C7.90628 18.9128 6.67151 18.8387 5.44229 18.7143L4.39771 18.6074C4.16171 18.5834 3.94065 18.4906 3.76774 18.3428C3.59484 18.195 3.47944 18.0003 3.43886 17.788C3.10522 16.0218 3.01768 14.2245 3.17829 12.4385H9.14286Z" fill="white"/>
</svg>
