<svg width="24" height="24" viewBox="0 0 24 24" fill="none" xmlns="http://www.w3.org/2000/svg">
<path d="M19.704 8.58799C17.64 9.27599 14.917 9.66699 12 9.66699C9.083 9.66699 6.36 9.27599 4.296 8.58699C3.47 8.31299 2.674 7.96499 2 7.52599V11.831C2 13.672 6.477 15.164 12 15.164C17.523 15.164 22 13.672 22 11.831V7.52499C21.326 7.96499 20.531 8.31199 19.703 8.58799" fill="white"/>
<path d="M22 15.022C21.326 15.461 20.531 15.809 19.703 16.084C17.64 16.772 14.917 17.164 12 17.164C9.083 17.164 6.36 16.772 4.296 16.084C3.47 15.81 2.674 15.462 2 15.022V19.667C2 21.507 6.477 23 12 23C17.523 23 22 21.508 22 19.667V15.022ZM12 7.667C6.477 7.667 2 6.174 2 4.333V4.33C2.005 2.49 6.48 1 12 1C16.142 1 19.696 1.84 21.214 3.036C21.72 3.435 22 3.873 22 4.333C22 6.174 17.523 7.667 12 7.667Z" fill="white"/>
</svg>
