<svg width="23" height="21" viewBox="0 0 23 21" fill="none" xmlns="http://www.w3.org/2000/svg">
<path fill-rule="evenodd" clip-rule="evenodd" d="M7.71119 0.556627C6.95191 0.723645 6.33664 1.19869 5.98129 1.89214L5.836 2.17572H5.24171C4.69613 2.17572 4.63568 2.18295 4.50522 2.26373C4.18578 2.46149 4.18311 2.47146 4.1835 3.4596C4.1838 4.29532 4.18956 4.35954 4.28326 4.57134C4.42206 4.885 4.74472 5.194 5.09934 5.35281L5.38532 5.48087H8.31016H11.235L11.4715 5.37878C11.8221 5.22744 12.0908 4.99037 12.2546 4.68775L12.396 4.42682L12.409 3.51452C12.4213 2.6447 12.4177 2.596 12.3315 2.46915C12.1584 2.21432 12.0308 2.17576 11.3589 2.17537L10.762 2.17501L10.5907 1.83312C10.281 1.21527 9.60538 0.70796 8.88713 0.553928C8.54705 0.481019 8.04968 0.482154 7.71119 0.556627ZM2.45102 3.05379C1.5544 3.25128 0.781709 3.95553 0.5714 4.76688C0.4762 5.1342 0.4762 15.8799 0.5714 16.2472C0.740301 16.8987 1.25986 17.4841 1.9257 17.7731C2.12672 17.8603 2.39375 17.9509 2.51904 17.9743C2.72845 18.0135 9.06355 18.041 9.06355 18.0028C9.06355 17.995 9.00576 17.8611 8.93511 17.7053C8.61172 16.9919 8.39887 16.183 8.3477 15.4731L8.31962 15.0834H6.03203H3.74439L3.60224 14.9954C3.40238 14.8717 3.29922 14.731 3.27174 14.5449C3.24066 14.3339 3.37542 14.0802 3.58809 13.9491L3.74676 13.8513L6.07455 13.84L8.40235 13.8286L8.45778 13.527C8.48827 13.3612 8.57611 13.0363 8.65304 12.805L8.79287 12.3845H6.31436H3.83589L3.64403 12.2965C3.43751 12.2018 3.25867 11.9522 3.25867 11.7587C3.25867 11.5652 3.43751 11.3156 3.64403 11.2209L3.83589 11.1329H6.64189H9.44792L9.65853 10.8493C9.92422 10.4915 10.1454 10.2372 10.4581 9.92998L10.7045 9.68787L7.22564 9.67695L3.7468 9.66608L3.58809 9.5683C3.37542 9.43726 3.24066 9.18345 3.27174 8.97251C3.29922 8.78636 3.40238 8.64571 3.60224 8.52199L3.74439 8.43398H8.16091H12.5774L12.9411 8.28117C13.8567 7.8964 14.9311 7.64845 15.8789 7.60328L16.0939 7.59303V6.24359C16.0939 4.93428 16.0909 4.88602 15.9936 4.62035C15.8465 4.21881 15.6631 3.94876 15.3391 3.65682C14.8872 3.2496 14.2346 2.99712 13.6339 2.99712H13.3635L13.3631 3.47626C13.3629 3.73978 13.3445 4.0999 13.3222 4.27646C13.2504 4.84467 12.9437 5.39165 12.4944 5.75271C12.2315 5.96392 11.681 6.21746 11.3511 6.27919C11.2 6.30747 10.1717 6.32162 8.29821 6.32123C5.18843 6.32061 5.19982 6.32135 4.64561 6.07786C4.23058 5.89551 3.75213 5.45783 3.54401 5.07017C3.32167 4.65595 3.26031 4.34178 3.2594 3.61316L3.25867 2.99712L2.96843 3.00044C2.80882 3.00228 2.57598 3.0263 2.45102 3.05379ZM15.6424 9.27932C15.2953 9.3182 14.6169 9.46488 14.2716 9.57573C12.5377 10.1322 11.1025 11.4378 10.4907 13.015C10.2321 13.6816 10.1608 14.0864 10.1608 14.8878C10.1608 15.6893 10.2321 16.094 10.4907 16.7606C11.1025 18.3378 12.5377 19.6434 14.2716 20.1999C15.0044 20.4351 15.4494 20.5 16.3304 20.5C17.2115 20.5 17.6564 20.4351 18.3892 20.1999C20.1231 19.6434 21.5583 18.3378 22.1701 16.7606C22.4287 16.094 22.5 15.6893 22.5 14.8878C22.5 14.0864 22.4287 13.6816 22.1701 13.015C21.5657 11.4568 20.143 10.1511 18.4374 9.5893C17.7872 9.37515 17.2703 9.29156 16.5024 9.27646C16.1122 9.26876 15.7252 9.27005 15.6424 9.27932ZM18.2553 12.4663C18.0828 12.5376 17.8539 12.7559 16.7504 13.9016C16.0346 14.6448 15.4354 15.2716 15.4189 15.2944C15.4012 15.3187 15.132 15.1057 14.7679 14.7794C14.373 14.4254 14.0788 14.1948 13.9595 14.1456C13.1936 13.8294 12.4173 14.5405 12.7648 15.2398C12.8277 15.3663 13.1332 15.6708 13.8496 16.3209C14.3982 16.8187 14.9109 17.2552 14.989 17.291C15.235 17.4038 15.5097 17.4116 15.7621 17.3128C15.9659 17.2331 16.1316 17.0733 17.672 15.471C18.5998 14.506 19.3947 13.6528 19.4386 13.5749C19.535 13.4041 19.5437 13.0756 19.4569 12.8887C19.2663 12.478 18.7048 12.2807 18.2553 12.4663Z" fill="white"/>
</svg>
