<svg width="16" height="16" viewBox="0 0 16 16" fill="none" xmlns="http://www.w3.org/2000/svg">
<path fill-rule="evenodd" clip-rule="evenodd" d="M7.18456 0.0231685C4.44368 0.321855 2.07394 1.96877 0.851704 4.42437C0.04959 6.03587 -0.191305 7.77692 0.151701 9.48304C0.243963 9.94188 0.457512 10.6238 0.629649 11.0092C0.803689 11.3989 0.805368 11.3822 0.396514 13.3378C0.19024 14.3243 0.0214974 15.1902 0.0214974 15.2619C0.0214974 15.4478 0.116445 15.6242 0.295447 15.7708C0.660465 16.0697 0.692997 16.0677 2.78349 15.6255C4.71614 15.2168 4.56131 15.2249 5.25848 15.4952C6.17643 15.851 6.99802 16 8.04263 16C8.84117 16 9.27114 15.9477 10.0217 15.7591C11.1592 15.4733 12.255 14.9064 13.1915 14.1192C14.6313 12.909 15.6289 11.0858 15.9358 9.10402C16.0213 8.55221 16.0214 7.45612 15.936 6.8975C15.7952 5.97618 15.5513 5.20647 15.1442 4.39926C13.9703 2.07148 11.7875 0.476126 9.23204 0.0782143C8.76726 0.00581902 7.62539 -0.0248702 7.18456 0.0231685ZM4.42458 7.31643C4.1604 7.45298 4.04326 7.66285 4.04326 7.99954C4.04326 8.52133 4.37645 8.82122 4.91294 8.78225C5.33903 8.75129 5.59887 8.45605 5.59887 8.00291C5.59887 7.69969 5.50527 7.50367 5.28627 7.34828C5.15782 7.25715 5.08414 7.23463 4.87921 7.22387C4.6629 7.21252 4.60127 7.22507 4.42458 7.31643ZM7.6509 7.28683C7.37043 7.41685 7.22127 7.66911 7.22269 8.01108C7.22463 8.47644 7.53954 8.78981 8.00533 8.78981C8.21686 8.78981 8.42616 8.71491 8.56002 8.59129C8.86005 8.31426 8.86005 7.69156 8.56002 7.41453C8.34307 7.21417 7.93213 7.15646 7.6509 7.28683ZM10.8177 7.28769C10.5071 7.42937 10.3382 7.82042 10.4249 8.19739C10.5095 8.56536 10.7895 8.78981 11.1641 8.78981C11.6676 8.78981 11.9674 8.49615 11.9674 8.00291C11.9674 7.50836 11.6663 7.21466 11.1616 7.21683C11.0569 7.21728 10.9022 7.24917 10.8177 7.28769Z" fill="white"/>
</svg>
