<svg width="57" height="50" viewBox="0 0 57 50" fill="none" xmlns="http://www.w3.org/2000/svg">
<path fill-rule="evenodd" clip-rule="evenodd" d="M47.815 46.4748V46.4692L47.8656 46.3483L56.2971 3.83962V3.70467C56.2971 2.64477 55.9035 1.71981 55.0545 1.16596C54.3094 0.679586 53.4519 0.645849 52.8503 0.690832C52.2903 0.741923 51.7378 0.855073 51.2028 1.0282C50.9745 1.10105 50.7494 1.18359 50.5281 1.27561L50.4915 1.28966L3.48457 19.7298L3.47051 19.7354C3.32649 19.7812 3.18641 19.8386 3.05161 19.9069C2.71748 20.0575 2.39676 20.2362 2.09291 20.4411C1.48846 20.8571 0.338588 21.8355 0.532576 23.3874C0.692827 24.6751 1.57842 25.4904 2.17726 25.9149C2.52993 26.1639 2.9101 26.3714 3.31026 26.5334L3.40022 26.5728L3.42834 26.5812L3.44802 26.5896L11.6742 29.3589C11.6442 29.8762 11.6977 30.3963 11.8345 30.9192L15.9532 46.5479C16.1782 47.3998 16.6644 48.1599 17.3435 48.7213C18.0226 49.2827 18.8605 49.6173 19.7396 49.6781C20.6186 49.7389 21.4946 49.5228 22.2445 49.0602C22.9944 48.5976 23.5806 47.9118 23.9208 47.0989L30.3533 40.2222L41.3994 48.6902L41.5568 48.7577C42.5605 49.1963 43.4967 49.334 44.3542 49.2188C45.2117 49.1007 45.892 48.7408 46.4037 48.3332C46.9957 47.8535 47.4674 47.2421 47.7813 46.5479L47.8038 46.5001L47.8122 46.4832L47.815 46.4748ZM15.911 29.8453C15.8654 29.6718 15.8763 29.4884 15.942 29.3216C16.0077 29.1547 16.1249 29.0132 16.2765 28.9175L44.1686 11.2055C44.1686 11.2055 45.8105 10.2075 45.7515 11.2055C45.7515 11.2055 46.0438 11.3799 45.1639 12.198C44.3317 12.9767 25.2843 31.3662 23.3557 33.2274C23.251 33.3335 23.1763 33.4654 23.1392 33.6097L20.0298 45.4739L15.911 29.8453Z" fill="white"/>
</svg>
