<svg width="45" height="51" viewBox="0 0 45 51" fill="none" xmlns="http://www.w3.org/2000/svg">
<path d="M35.3132 8.1992C33.3918 6.00496 32.3328 3.18756 32.3331 0.270996H23.6458V35.1326C23.5802 37.0196 22.7841 38.8073 21.4256 40.1187C20.0671 41.43 18.2523 42.1623 16.3642 42.1612C12.372 42.1612 9.05451 38.8999 9.05451 34.8515C9.05451 30.0158 13.7215 26.3891 18.529 27.8791V18.9951C8.8296 17.7018 0.339111 25.2364 0.339111 34.8515C0.339111 44.2135 8.09863 50.8766 16.3361 50.8766C25.164 50.8766 32.3331 43.7074 32.3331 34.8515V17.1676C35.8558 19.6975 40.0852 21.0548 44.4222 21.0474V12.3601C44.4222 12.3601 39.1367 12.6131 35.3132 8.1992Z" fill="white"/>
</svg>
