<svg width="20" height="21" viewBox="0 0 20 21" fill="none" xmlns="http://www.w3.org/2000/svg">
<g clip-path="url(#clip0_124_217)">
<path d="M13.75 9.25C13.75 11.325 12.075 13 10 13C7.925 13 6.25 11.325 6.25 9.25C6.25 7.175 7.925 5.5 10 5.5C12.075 5.5 13.75 7.175 13.75 9.25Z" fill="white"/>
<path fill-rule="evenodd" clip-rule="evenodd" d="M20 10.5C20 16.025 15.525 20.5 10 20.5C4.475 20.5 0 16.025 0 10.5C0 4.975 4.475 0.5 10 0.5C15.525 0.5 20 4.975 20 10.5ZM5 17.6875C5.2 17.355 7.1375 14.25 9.9875 14.25C12.825 14.25 14.775 17.3625 14.975 17.6875C16.1373 16.8837 17.087 15.8097 17.7424 14.5577C18.3978 13.3056 18.7393 11.9132 18.7375 10.5C18.7375 5.6625 14.825 1.75 9.9875 1.75C5.15 1.75 1.2375 5.6625 1.2375 10.5C1.2375 13.475 2.725 16.1125 5 17.6875Z" fill="white"/>
</g>
<defs>
<clipPath id="clip0_124_217">
<rect width="20" height="20" fill="white" transform="translate(0 0.5)"/>
</clipPath>
</defs>
</svg>
