<svg width="1024" height="1024" viewBox="0 0 1024 1024" fill="none" xmlns="http://www.w3.org/2000/svg">
<g clip-path="url(#clip0_383_18)">
<path d="M135.182 820.701L623.838 825.037C624.899 825.052 625.933 824.692 626.754 824.013L782.364 697.669C782.834 697.293 783.19 696.796 783.399 696.238C783.613 695.673 783.665 695.067 783.561 694.477C777.029 657.551 758.072 630.441 726.688 613.145C716.415 607.509 702.552 603.894 690.482 601.204C690.231 601.141 690.006 601 689.844 600.802C689.682 600.598 689.588 600.353 689.578 600.097C689.562 599.835 689.635 599.579 689.782 599.371C689.928 599.156 690.137 598.994 690.383 598.911C750.573 580.148 801.29 546.957 842.529 499.333C842.712 499.134 842.957 499.009 843.218 498.982C843.48 498.954 843.741 499.026 843.95 499.183C861.256 512.194 876.922 526.958 890.952 543.476C912.276 568.582 926.333 597.297 933.115 629.621C940.995 667.105 942.886 704.282 938.8 741.135C931.119 810.379 896.287 874.29 842.879 918.885C802.21 952.833 752.073 976.36 699.161 982.691C689.186 983.887 673.771 984.488 652.906 984.488C548.502 984.452 359.196 984.446 84.9899 984.462C84.6837 984.462 84.3818 984.389 84.1075 984.253C83.8333 984.117 83.5941 983.919 83.4084 983.678C83.2228 983.433 83.0957 983.151 83.037 982.848C82.9783 982.55 82.9896 982.242 83.07 981.944L233.87 433.18C233.984 432.758 234.235 432.386 234.581 432.12C234.928 431.854 235.353 431.71 235.79 431.709H501.385C502.202 431.709 503.009 431.494 503.729 431.086L721.202 303.99C721.343 303.902 721.463 303.782 721.552 303.639C721.635 303.496 721.688 303.335 721.698 303.17C721.708 303.005 721.677 302.842 721.609 302.693C721.536 302.545 721.431 302.417 721.301 302.32L580.775 198.454C579.349 197.403 577.628 196.835 575.863 196.834C540.041 196.767 505.084 196.784 470.991 196.884C456.496 196.917 443.813 201.869 432.942 211.739C411.881 230.866 353.935 284.29 259.103 372.012C258.804 372.278 258.48 372.419 258.131 372.435C257.956 372.436 257.783 372.397 257.626 372.323C257.468 372.248 257.33 372.139 257.222 372.005C257.114 371.87 257.038 371.713 257.002 371.546C256.964 371.379 256.967 371.205 257.008 371.04C289.547 233.924 300.119 185.144 327.546 86.0888C331.519 71.7315 335.376 62.4177 339.116 58.1471C353.029 42.2444 366.443 38.8794 389.657 39.029C422.586 39.2616 486.641 39.2533 581.822 39.0041C617.129 38.921 641.249 40.1091 654.181 42.5685C710.955 53.4112 765.831 80.8793 805.429 123.478C862.907 185.376 887.999 258.866 880.705 343.945C874.346 417.95 835.177 486.221 776.977 532.534C741.424 560.833 699.767 579.16 652.013 587.518C627.699 591.781 595.635 591.655 569.031 594.074C567.043 594.257 565.085 594.674 563.196 595.322C544.745 601.554 529.12 606.631 516.321 610.549C509.439 612.659 500.754 616.635 490.265 622.464C403.778 670.537 285.317 736.224 134.883 819.531C134.76 819.594 134.663 819.698 134.608 819.829C134.552 819.954 134.54 820.095 134.575 820.231C134.609 820.367 134.687 820.487 134.797 820.57C134.907 820.654 135.043 820.701 135.182 820.701Z" fill="#C6D42D"/>
</g>
<defs>
<clipPath id="clip0_383_18">
<rect width="858" height="946" fill="white" transform="translate(83 39)"/>
</clipPath>
</defs>
</svg>
