<svg width="4478" height="1842" viewBox="0 0 4478 1842" fill="none" xmlns="http://www.w3.org/2000/svg">
<path d="M99.8629 1496.47L1035.03 1504.77C1037.06 1504.8 1039.04 1504.11 1040.61 1502.81L1338.41 1260.94C1339.31 1260.22 1339.99 1259.27 1340.39 1258.2C1340.8 1257.12 1340.9 1255.96 1340.7 1254.83C1328.2 1184.14 1291.92 1132.24 1231.86 1099.13C1212.2 1088.34 1185.67 1081.42 1162.57 1076.27C1162.09 1076.15 1161.66 1075.88 1161.35 1075.5C1161.04 1075.11 1160.86 1074.64 1160.84 1074.15C1160.81 1073.65 1160.95 1073.16 1161.23 1072.76C1161.51 1072.35 1161.91 1072.04 1162.38 1071.88C1277.57 1035.96 1374.63 972.421 1453.55 881.25C1453.9 880.87 1454.37 880.631 1454.87 880.578C1455.37 880.525 1455.87 880.662 1456.27 880.963C1489.39 905.872 1519.37 934.136 1546.22 965.757C1587.03 1013.82 1613.93 1068.79 1626.91 1130.67C1641.99 1202.43 1645.61 1273.6 1637.79 1344.15C1623.09 1476.71 1556.43 1599.06 1454.22 1684.43C1376.39 1749.42 1280.44 1794.46 1179.18 1806.58C1160.09 1808.87 1130.59 1810.02 1090.66 1810.02C890.856 1809.95 528.57 1809.94 3.80812 1809.97C3.22214 1809.97 2.64433 1809.83 2.1195 1809.57C1.59466 1809.31 1.13691 1808.93 0.781637 1808.47C0.426365 1808 0.183111 1807.46 0.0707855 1806.88C-0.0415397 1806.31 -0.0199468 1805.72 0.133876 1805.15L288.728 754.608C288.947 753.801 289.426 753.089 290.089 752.58C290.753 752.071 291.566 751.795 292.402 751.793H800.686C802.249 751.793 803.794 751.382 805.171 750.6L1221.36 507.29C1221.63 507.122 1221.86 506.892 1222.03 506.618C1222.19 506.345 1222.29 506.037 1222.31 505.721C1222.33 505.405 1222.27 505.092 1222.14 504.808C1222 504.524 1221.8 504.279 1221.55 504.093L952.618 305.255C949.89 303.242 946.596 302.155 943.217 302.153C874.664 302.026 807.764 302.058 742.519 302.249C714.779 302.312 690.507 311.792 669.702 330.688C629.397 367.303 518.502 469.577 337.018 637.51C336.445 638.019 335.825 638.289 335.157 638.321C334.822 638.322 334.492 638.248 334.191 638.105C333.889 637.962 333.625 637.754 333.418 637.496C333.211 637.238 333.066 636.938 332.996 636.618C332.925 636.298 332.929 635.966 333.009 635.649C395.28 373.157 415.512 279.774 468.001 90.1457C475.604 62.6605 482.985 44.8302 490.142 36.6547C516.768 6.21106 542.44 -0.230779 586.865 0.0555244C649.884 0.500885 772.469 0.484969 954.622 0.00779693C1022.19 -0.151261 1068.35 2.12326 1093.1 6.83136C1201.75 27.5884 1306.77 80.1728 1382.55 161.722C1492.55 280.219 1540.57 420.906 1526.61 583.78C1514.44 725.453 1439.48 856.15 1328.1 944.809C1260.06 998.984 1180.34 1034.07 1088.95 1050.07C1042.42 1058.23 981.057 1057.99 930.143 1062.62C926.339 1062.97 922.591 1063.77 918.977 1065.01C883.666 1076.94 853.763 1086.66 829.269 1094.16C816.099 1098.2 799.477 1105.81 779.404 1116.97C613.889 1209 387.184 1334.75 99.2903 1494.23C99.0561 1494.35 98.871 1494.55 98.7642 1494.8C98.6574 1495.04 98.6352 1495.31 98.701 1495.57C98.7668 1495.83 98.9169 1496.06 99.1275 1496.22C99.338 1496.38 99.5968 1496.47 99.8629 1496.47Z" fill="white"/>
<path d="M3103.33 879.102V1135.63C3103.33 1136.04 3103.17 1136.42 3102.88 1136.71C3102.6 1137 3102.21 1137.16 3101.8 1137.16H2883.07C2882.84 1137.16 2882.62 1137.2 2882.41 1137.29C2882.2 1137.37 2882.01 1137.5 2881.85 1137.66C2881.69 1137.82 2881.57 1138.01 2881.48 1138.22C2881.39 1138.43 2881.35 1138.65 2881.35 1138.87C2881.6 1263.13 2881.56 1362.41 2881.21 1436.73C2881.05 1473.12 2883.57 1498.06 2888.79 1511.55C2921.29 1595.53 3023.59 1579.02 3084.05 1542.09C3084.39 1541.88 3084.77 1541.75 3085.17 1541.71C3085.56 1541.67 3085.96 1541.71 3086.34 1541.85C3086.71 1541.98 3087.05 1542.19 3087.33 1542.47C3087.62 1542.75 3087.83 1543.09 3087.96 1543.47L3171.76 1780.34C3172.18 1781.57 3172.18 1782.91 3171.73 1784.14C3171.29 1785.38 3170.44 1786.42 3169.32 1787.11C3122.18 1815.89 3065.58 1830.25 3008.9 1837.22C2957.71 1843.52 2905.02 1843.39 2850.81 1836.84C2727.13 1821.9 2619.91 1767.17 2568.23 1649.59C2551.84 1612.31 2541.33 1571.53 2536.69 1527.25C2533.31 1495.18 2532.22 1436.14 2533.39 1350.12C2533.41 1349.15 2533.75 1348.22 2534.37 1347.48C2534.99 1346.74 2535.84 1346.24 2536.78 1346.06L2576.86 1338.38C2578.03 1338.16 2579.09 1337.53 2579.83 1336.61C2580.58 1335.68 2580.96 1334.51 2580.92 1333.32C2579.68 1300.24 2578.96 1281.92 2578.77 1278.35C2575.27 1216.26 2561.18 1157.99 2536.5 1103.56C2535.05 1100.32 2534.28 1096.8 2534.25 1093.21L2532.68 623.338C2532.68 622.617 2532.96 621.925 2533.48 621.415C2533.99 620.905 2534.68 620.618 2535.4 620.618H2877.39C2878.15 620.618 2878.88 620.92 2879.41 621.457C2879.95 621.994 2880.25 622.722 2880.25 623.481V871.277C2880.25 872.492 2880.74 873.657 2881.61 874.516C2882.47 875.375 2883.65 875.858 2884.88 875.858H3100.08C3100.94 875.858 3101.77 876.199 3102.38 876.808C3102.99 877.417 3103.33 878.242 3103.33 879.102Z" fill="white"/>
<path d="M1868.6 1458.72C1868.25 1458.79 1867.93 1458.94 1867.65 1459.15C1867.37 1459.36 1867.15 1459.63 1866.99 1459.95C1866.83 1460.26 1866.75 1460.61 1866.75 1460.96C1866.74 1461.31 1866.82 1461.65 1866.98 1461.97C1919.23 1567.14 2047.49 1586.32 2151.37 1568.81C2212.35 1558.55 2263.31 1529.97 2309.7 1489.79C2310.31 1489.25 2311.11 1488.97 2311.92 1489C2312.73 1489.04 2313.49 1489.39 2314.04 1489.98L2491.78 1676.5C2492.44 1677.19 2492.82 1678.1 2492.84 1679.05C2492.86 1680 2492.51 1680.91 2491.88 1681.61C2408.33 1773.32 2294.09 1821.23 2171.6 1834.83C1942.23 1860.41 1699.25 1797.42 1568.6 1592.47C1568.13 1591.75 1567.88 1590.9 1567.88 1590.02C1567.88 1589.15 1568.13 1588.3 1568.6 1587.56C1679.49 1415.68 1691.76 1205.58 1607.01 1018.87C1606.48 1017.69 1606.29 1016.38 1606.46 1015.1C1606.63 1013.82 1607.15 1012.61 1607.97 1011.61C1723.3 871.563 1901.24 815.734 2078.6 823.607C2309.5 833.818 2507.77 977.209 2553.63 1209.54C2561.1 1247.53 2565.21 1285.24 2565.94 1322.68C2565.95 1323.44 2565.7 1324.19 2565.22 1324.78C2564.74 1325.38 2564.06 1325.78 2563.31 1325.93L1868.6 1458.72ZM1839.59 1278.92L2227.48 1204.72C2228.08 1204.61 2228.66 1204.37 2229.16 1204.02C2229.66 1203.67 2230.08 1203.21 2230.39 1202.68C2230.7 1202.15 2230.89 1201.56 2230.94 1200.95C2231 1200.34 2230.93 1199.72 2230.72 1199.14C2197.04 1101.42 2104.37 1057.28 2005.26 1073.45C1899.28 1090.78 1844.88 1176.86 1838.34 1277.83C1838.33 1277.99 1838.36 1278.15 1838.42 1278.29C1838.48 1278.44 1838.58 1278.57 1838.7 1278.68C1838.82 1278.79 1838.96 1278.86 1839.11 1278.9C1839.27 1278.95 1839.43 1278.95 1839.59 1278.92Z" fill="white"/>
<path d="M3937.04 1240.13C3937 1240.38 3937.03 1240.64 3937.13 1240.87C3937.24 1241.1 3937.41 1241.3 3937.63 1241.43C3937.85 1241.56 3938.1 1241.62 3938.35 1241.6C3938.61 1241.58 3938.85 1241.49 3939.05 1241.32L4192.57 1037.91C4194.33 1036.52 4196.5 1035.76 4198.73 1035.76H4438.12C4438.7 1035.75 4439.27 1035.88 4439.79 1036.12C4440.31 1036.36 4440.77 1036.72 4441.13 1037.16C4441.5 1037.61 4441.76 1038.13 4441.9 1038.68C4442.04 1039.24 4442.05 1039.82 4441.94 1040.39L4347.08 1515.84C4346.99 1516.35 4346.72 1516.81 4346.32 1517.14C4345.92 1517.47 4345.41 1517.65 4344.88 1517.65H4134.74C4133.95 1517.66 4133.18 1517.46 4132.49 1517.08C4131.81 1516.71 4131.23 1516.17 4130.82 1515.51L4006.33 1313.52C4006.16 1313.24 4005.93 1313 4005.66 1312.82C4005.39 1312.63 4005.08 1312.51 4004.76 1312.46C4004.43 1312.4 4004.1 1312.42 4003.78 1312.5C4003.45 1312.59 4003.15 1312.74 4002.89 1312.95L3909.65 1388.63C3907.8 1390.14 3906.52 1392.26 3906.03 1394.64L3882.07 1514.93C3881.93 1515.66 3881.54 1516.32 3880.96 1516.79C3880.39 1517.26 3879.67 1517.51 3878.92 1517.51C3849.34 1517.77 3817.07 1517.75 3782.11 1517.46C3774.63 1517.4 3755.16 1519.32 3723.7 1523.24C3705.66 1525.46 3685.07 1523.09 3661.91 1516.13C3628.25 1506.01 3604.84 1484.76 3591.67 1452.38C3591.51 1451.97 3591.25 1451.62 3590.92 1451.34C3590.58 1451.07 3590.18 1450.88 3589.76 1450.81C3589.33 1450.73 3588.89 1450.76 3588.48 1450.9C3588.07 1451.05 3587.71 1451.29 3587.42 1451.61C3537.84 1506.06 3465.45 1528.92 3392.49 1522.24C3280.79 1512.07 3208.69 1433 3204.11 1321.78C3196.57 1138.49 3344.83 1003.5 3527.01 1035.52C3571.7 1043.38 3607.56 1065.04 3634.56 1100.51C3634.71 1100.71 3634.92 1100.86 3635.15 1100.94C3635.38 1101.03 3635.64 1101.04 3635.88 1100.99C3636.12 1100.93 3636.34 1100.81 3636.52 1100.63C3636.69 1100.45 3636.81 1100.23 3636.85 1099.99L3649.36 1037.29C3649.43 1036.86 3649.66 1036.47 3650 1036.19C3650.34 1035.91 3650.77 1035.76 3651.22 1035.76H3761.83C3762.25 1035.76 3762.67 1035.85 3763.06 1036.03C3763.44 1036.21 3763.78 1036.48 3764.05 1036.82C3764.32 1037.15 3764.51 1037.54 3764.62 1037.96C3764.72 1038.38 3764.73 1038.82 3764.64 1039.24C3741.36 1153.44 3719.33 1263.54 3698.55 1369.54C3695.02 1387.42 3699.25 1402.39 3711.25 1414.44C3727.95 1431.19 3759.73 1430.43 3781.2 1423.6C3782.37 1423.25 3783.41 1422.58 3784.23 1421.67C3785.04 1420.76 3785.6 1419.65 3785.83 1418.45L3898.73 852.476C3898.89 851.696 3899.32 850.995 3899.95 850.491C3900.57 849.987 3901.35 849.711 3902.16 849.708H4008.91C4009.64 849.71 4010.36 849.873 4011.02 850.184C4011.69 850.495 4012.27 850.947 4012.74 851.508C4013.2 852.069 4013.54 852.725 4013.71 853.429C4013.89 854.132 4013.91 854.866 4013.77 855.578L3937.04 1240.13ZM4098.66 1242.37C4098.35 1242.63 4098.14 1242.98 4098.07 1243.38C4098 1243.77 4098.08 1244.18 4098.28 1244.52L4237.62 1470.56C4237.79 1470.84 4238.05 1471.07 4238.35 1471.2C4238.65 1471.34 4238.99 1471.38 4239.32 1471.33C4239.65 1471.27 4239.95 1471.12 4240.19 1470.89C4240.43 1470.66 4240.6 1470.36 4240.67 1470.03L4321.45 1065.2C4321.52 1064.87 4321.48 1064.52 4321.34 1064.21C4321.2 1063.9 4320.97 1063.64 4320.68 1063.46C4320.39 1063.29 4320.05 1063.2 4319.71 1063.22C4319.37 1063.24 4319.05 1063.37 4318.78 1063.58L4098.66 1242.37ZM3347.07 1204.3C3330.61 1230.16 3322.11 1262.46 3320.16 1293.24C3316.1 1358.57 3346.93 1411.58 3415.88 1421.89C3483.87 1432.05 3543.04 1406.9 3579.93 1348.97C3596.39 1323.11 3604.93 1290.81 3606.84 1260.03C3610.9 1194.7 3580.07 1141.69 3511.17 1131.38C3443.17 1121.22 3383.95 1146.37 3347.07 1204.3Z" fill="white"/>
<path d="M4477.11 931.734C4477.11 952.616 4468.81 972.642 4454.05 987.407C4439.28 1002.17 4419.26 1010.47 4398.37 1010.47C4377.49 1010.47 4357.47 1002.17 4342.7 987.407C4327.94 972.642 4319.64 952.616 4319.64 931.734C4319.64 910.853 4327.94 890.827 4342.7 876.062C4357.47 861.296 4377.49 853.001 4398.37 853.001C4419.26 853.001 4439.28 861.296 4454.05 876.062C4468.81 890.827 4477.11 910.853 4477.11 931.734Z" fill="white"/>
</svg>
